<?xml version="1.0" encoding="utf-8"?>
<!-- Generator: Adobe Illustrator 18.1.1, SVG Export Plug-In . SVG Version: 6.00 Build 0)  -->
<!DOCTYPE svg PUBLIC "-//W3C//DTD SVG 1.1//EN" "http://www.w3.org/Graphics/SVG/1.1/DTD/svg11.dtd">
<svg version="1.1" id="Layer_1" xmlns="http://www.w3.org/2000/svg" xmlns:xlink="http://www.w3.org/1999/xlink" x="0px" y="0px"
	 viewBox="227 -8 24 24" enable-background="new 227 -8 24 24" xml:space="preserve">
<path fill="none" d="M227-8h24v24h-24V-8z"/>
<path d="M246.4,5c0-0.3,0.1-0.6,0.1-1s0-0.7-0.1-1l2.1-1.6c0.2-0.1,0.2-0.4,0.1-0.6l-2-3.5c-0.1-0.2-0.4-0.3-0.6-0.2l-2.5,1
	c-0.5-0.4-1.1-0.7-1.7-1l-0.4-2.7c0-0.2-0.2-0.4-0.5-0.4h-4c-0.2,0-0.5,0.2-0.5,0.4l-0.4,2.7c-0.6,0.2-1.2,0.6-1.7,1l-2.5-1
	c-0.2-0.1-0.5,0-0.6,0.2l-2,3.5c-0.1,0.2-0.1,0.5,0.1,0.6l2.1,1.6c0,0.3-0.1,0.6-0.1,1s0,0.7,0.1,1l-2.1,1.6
	c-0.2,0.1-0.2,0.4-0.1,0.6l2,3.5c0.1,0.2,0.4,0.3,0.6,0.2l2.5-1c0.5,0.4,1.1,0.7,1.7,1l0.4,2.6c0,0.2,0.2,0.4,0.5,0.4h4
	c0.2,0,0.5-0.2,0.5-0.4l0.4-2.6c0.6-0.2,1.2-0.6,1.7-1l2.5,1c0.2,0.1,0.5,0,0.6-0.2l2-3.5c0.1-0.2,0.1-0.5-0.1-0.6L246.4,5z
	 M239,7.5c-1.9,0-3.5-1.6-3.5-3.5s1.6-3.5,3.5-3.5s3.5,1.6,3.5,3.5S240.9,7.5,239,7.5z"/>
</svg>
