<?xml version="1.0" encoding="utf-8"?>
<!-- Generator: Adobe Illustrator 18.1.1, SVG Export Plug-In . SVG Version: 6.00 Build 0)  -->
<!DOCTYPE svg PUBLIC "-//W3C//DTD SVG 1.1//EN" "http://www.w3.org/Graphics/SVG/1.1/DTD/svg11.dtd">
<svg version="1.1" id="Layer_1" xmlns="http://www.w3.org/2000/svg" xmlns:xlink="http://www.w3.org/1999/xlink" x="0px" y="0px"
	 viewBox="139 -8 24 24" enable-background="new 139 -8 24 24" xml:space="preserve">
<path d="M154.4,5.9h-0.8l-0.3-0.3c1-1.1,1.6-2.6,1.6-4.2c0-3.6-2.9-6.5-6.5-6.5c-3.6,0-6.5,2.9-6.5,6.5s2.9,6.5,6.5,6.5
	c1.6,0,3.1-0.6,4.2-1.6l0.3,0.3v0.8l5,5l1.5-1.5C159.3,10.9,154.4,5.9,154.4,5.9z M148.4,5.9c-2.5,0-4.5-2-4.5-4.5s2-4.5,4.5-4.5
	s4.5,2,4.5,4.5S150.9,5.9,148.4,5.9z"/>
<path fill="none" d="M139-8h23.8v23.8H139V-8z"/>
</svg>
