<?xml version="1.0" encoding="utf-8"?>
<!-- Generator: Adobe Illustrator 18.1.1, SVG Export Plug-In . SVG Version: 6.00 Build 0)  -->
<!DOCTYPE svg PUBLIC "-//W3C//DTD SVG 1.1//EN" "http://www.w3.org/Graphics/SVG/1.1/DTD/svg11.dtd">
<svg version="1.1" id="Layer_1" xmlns="http://www.w3.org/2000/svg" xmlns:xlink="http://www.w3.org/1999/xlink" x="0px" y="0px"
	 viewBox="-3 4 18 18" enable-background="new -3 4 18 18" xml:space="preserve">
<path fill="none" d="M-3,4h18v18H-3V4z"/>
<path d="M6,9.5c0.8,0,1.5-0.7,1.5-1.5S6.8,6.5,6,6.5S4.5,7.2,4.5,8S5.2,9.5,6,9.5z M6,11.5c-0.8,0-1.5,0.7-1.5,1.5s0.7,1.5,1.5,1.5
	s1.5-0.7,1.5-1.5S6.8,11.5,6,11.5z M6,16.5c-0.8,0-1.5,0.7-1.5,1.5s0.7,1.5,1.5,1.5s1.5-0.7,1.5-1.5S6.8,16.5,6,16.5z"/>
</svg>
